<svg id="Layer_1" enable-background="new 0 0 256 256" height="512" viewBox="0 0 256 256" width="512" xmlns="http://www.w3.org/2000/svg"><path d="m223.765 202.072h-191.53c-8.635 0-15.635-7-15.635-15.635v-144.626c0-8.635 7-15.635 15.635-15.635h191.531c8.635 0 15.635 7 15.635 15.635v144.625c0 8.636-7 15.636-15.636 15.636z" fill="#e0ebfc"/><path d="m28.411 149.305v-105.538c0-3.238 2.625-5.863 5.863-5.863h187.622c3.238 0 5.863 2.625 5.863 5.863v105.537c0 3.238-2.625 5.863-5.863 5.863h-187.622c-3.238.001-5.863-2.624-5.863-5.862z" fill="#6bdddd"/><path d="m195.805 248h-135.61c-3.029 0-5.485-2.456-5.485-5.485v-2.712c0-3.029 2.456-5.485 5.485-5.485h135.611c3.029 0 5.485 2.456 5.485 5.485v2.712c-.001 3.029-2.457 5.485-5.486 5.485z" fill="#a4c9ff"/><path d="m82.136 202.073-7.882 32.246h107.492l-7.882-32.246z" fill="#e0ebfc"/><path d="m16.599 166.892v19.544c0 8.635 7 15.635 15.635 15.635h191.531c8.635 0 15.635-7 15.635-15.635v-19.544z" fill="#a4c9ff"/><path d="m128.501 194.254h-1.003c-5.099 0-9.271-4.172-9.271-9.271v-1.003c0-5.099 4.172-9.271 9.271-9.271h1.003c5.099 0 9.271 4.172 9.271 9.271v1.003c0 5.099-4.172 9.271-9.271 9.271z" fill="#4671c6"/><path d="m223.766 204.071h-191.532c-9.724 0-17.635-7.911-17.635-17.635v-144.624c0-9.725 7.911-17.636 17.635-17.636h191.531c9.724 0 17.635 7.911 17.635 17.636v144.625c0 9.723-7.911 17.634-17.634 17.634zm-191.532-175.895c-7.519 0-13.635 6.117-13.635 13.636v144.625c0 7.519 6.116 13.635 13.635 13.635h191.531c7.519 0 13.635-6.116 13.635-13.635v-144.625c0-7.519-6.116-13.636-13.635-13.636z" fill="#3762cc"/><path d="m195.806 250h-135.612c-4.127 0-7.484-3.357-7.484-7.484v-2.712c0-4.127 3.357-7.484 7.484-7.484h135.611c4.127 0 7.484 3.357 7.484 7.484v2.712c.001 4.127-3.356 7.484-7.483 7.484zm-135.612-13.681c-1.921 0-3.484 1.563-3.484 3.484v2.712c0 1.921 1.563 3.484 3.484 3.484h135.611c1.921 0 3.484-1.563 3.484-3.484v-2.712c0-1.921-1.563-3.484-3.484-3.484z" fill="#3762cc"/><path d="m181.746 236.319h-107.492c-.614 0-1.194-.282-1.573-.765s-.516-1.114-.369-1.71l7.883-32.246c.219-.896 1.021-1.525 1.942-1.525h91.727c.922 0 1.724.63 1.942 1.525l7.883 32.246c.146.596.01 1.227-.369 1.71-.38.483-.96.765-1.574.765zm-104.944-4h102.396l-6.905-28.246h-88.586z" fill="#3762cc"/><path d="m223.766 204.071h-191.532c-9.724 0-17.635-7.911-17.635-17.635v-19.544c0-1.104.896-2 2-2h222.801c1.104 0 2 .896 2 2v19.544c0 9.724-7.911 17.635-17.634 17.635zm-205.166-35.178v17.544c0 7.519 6.116 13.635 13.635 13.635h191.531c7.519 0 13.635-6.116 13.635-13.635v-17.544z" fill="#3762cc"/><path d="m221.896 157.168h-187.623c-4.335 0-7.862-3.527-7.862-7.863v-105.537c0-4.336 3.527-7.863 7.862-7.863h187.622c4.336 0 7.863 3.527 7.863 7.863v105.537c.001 4.336-3.527 7.863-7.862 7.863zm-187.623-117.264c-2.13 0-3.862 1.733-3.862 3.863v105.537c0 2.13 1.732 3.863 3.862 3.863h187.622c2.13 0 3.863-1.733 3.863-3.863v-105.536c0-2.13-1.733-3.863-3.863-3.863h-187.622z" fill="#3762cc"/><path d="m190.895 155.168v-141.872c0-2.925-2.371-5.296-5.296-5.296h-115.198c-2.925 0-5.296 2.371-5.296 5.296v141.872z" fill="#e0ebfc"/><path d="m170.429 44.334h-84.773c-2.209 0-4-1.791-4-4v-11.862c0-2.209 1.791-4 4-4h84.772c2.209 0 4 1.791 4 4v11.862c.001 2.209-1.79 4-3.999 4z" fill="#f9a7a7"/><g fill="#a4c9ff"><path d="m125.954 84.215h-37.918c-3.523 0-6.379-2.856-6.379-6.379v-16.151c0-3.523 2.856-6.379 6.379-6.379h37.918c3.523 0 6.379 2.856 6.379 6.379v16.151c0 3.523-2.856 6.379-6.379 6.379z"/><path d="m171.033 99.424h-86.066c-1.828 0-3.31-1.482-3.31-3.31 0-1.828 1.482-3.31 3.31-3.31h86.067c1.828 0 3.31 1.482 3.31 3.31 0 1.828-1.482 3.31-3.311 3.31z"/><path d="m171.033 112.697h-86.066c-1.828 0-3.31-1.482-3.31-3.31 0-1.828 1.482-3.31 3.31-3.31h86.067c1.828 0 3.31 1.482 3.31 3.31 0 1.828-1.482 3.31-3.311 3.31z"/><path d="m171.033 67.105h-29.951c-1.828 0-3.31-1.482-3.31-3.31 0-1.828 1.482-3.31 3.31-3.31h29.951c1.828 0 3.31 1.482 3.31 3.31.001 1.828-1.481 3.31-3.31 3.31z"/><path d="m171.033 79.036h-29.951c-1.828 0-3.31-1.482-3.31-3.31 0-1.828 1.482-3.31 3.31-3.31h29.951c1.828 0 3.31 1.482 3.31 3.31.001 1.828-1.481 3.31-3.31 3.31z"/><path d="m171.118 125.97h-86.066c-1.828 0-3.31-1.482-3.31-3.31 0-1.828 1.482-3.31 3.31-3.31h86.067c1.828 0 3.31 1.482 3.31 3.31 0 1.828-1.483 3.31-3.311 3.31z"/><path d="m171.118 139.243h-86.066c-1.828 0-3.31-1.482-3.31-3.31 0-1.828 1.482-3.31 3.31-3.31h86.067c1.828 0 3.31 1.482 3.31 3.31 0 1.828-1.483 3.31-3.311 3.31z"/></g><path d="m190.895 157.168h-125.79c-1.104 0-2-.896-2-2v-141.871c0-4.024 3.273-7.297 7.296-7.297h115.197c4.023 0 7.296 3.273 7.296 7.297v141.871c.001 1.104-.895 2-1.999 2zm-123.79-4h121.789v-139.871c0-1.818-1.479-3.297-3.296-3.297h-115.197c-1.817 0-3.296 1.479-3.296 3.297z" fill="#3762cc"/><path d="m154.769 84.492h72.252v20.124h-72.252z" fill="#4671c6" transform="matrix(0 1 -1 0 285.45 -96.341)"/><path d="m200.957 130.68h-20.124l8.67 13.445c.621.963 2.163.963 2.784 0z" fill="#f9cfcf"/><path d="m180.833 58.428v-7.648c0-1.964 1.592-3.556 3.556-3.556h13.013c1.964 0 3.556 1.592 3.556 3.556v7.649h-20.125z" fill="#f9cfcf"/><path d="m192.287 144.125 4.102-6.361h-10.988l4.102 6.361c.621.963 2.163.963 2.784 0z" fill="#a4c9ff"/><path d="m200.957 132.681h-20.124c-1.104 0-2-.896-2-2v-72.253c0-1.104.896-2 2-2h20.124c1.104 0 2 .896 2 2v72.253c0 1.104-.895 2-2 2zm-18.124-4h16.124v-68.253h-16.124z" fill="#3762cc"/><path d="m190.896 146.847c-1.263 0-2.412-.612-3.073-1.638l-8.67-13.444c-.396-.615-.426-1.398-.075-2.041s1.023-1.043 1.756-1.043h20.124c.732 0 1.405.4 1.756 1.043s.321 1.426-.075 2.041l-8.67 13.444c-.662 1.025-1.812 1.638-3.073 1.638zm-6.393-14.166 6.392 9.913 6.393-9.913z" fill="#3762cc"/><path d="m200.957 60.428h-20.124c-1.104 0-2-.896-2-2v-7.648c0-3.063 2.492-5.556 5.556-5.556h13.013c3.063 0 5.556 2.492 5.556 5.556v7.648c-.001 1.104-.896 2-2.001 2zm-18.124-4h16.124v-5.648c0-.857-.698-1.556-1.556-1.556h-13.013c-.857 0-1.556.698-1.556 1.556v5.648z" fill="#3762cc"/></svg>